<svg width="39" height="22" viewBox="0 0 39 22" fill="none" xmlns="http://www.w3.org/2000/svg">
    <path
        d="M38.4 11.0205C38.4 11.0205 29.8017 21.9071 19.2 21.9071C8.59829 21.9071 0 11.0205 0 11.0205C0 11.0205 8.59829 -0.00749969 19.2 -0.00749969C29.8088 -0.00749969 38.4 11.0205 38.4 11.0205Z"
        fill="#404157" />
    <path
        d="M11.7995 16.4767C11.4573 15.971 11.1578 15.4296 10.9225 14.8598C10.6801 14.2828 10.4948 13.6845 10.3664 13.0791C10.3023 12.7728 10.2524 12.4522 10.2238 12.1317C10.2167 12.089 10.2167 12.0462 10.2096 11.9964L10.2025 11.9394C10.2025 11.9251 10.2024 11.9038 10.1953 11.8895C10.1953 11.8681 10.1953 11.8397 10.1882 11.8183L10.1811 11.7471C10.1811 11.7186 10.1739 11.683 10.1739 11.6545C10.1739 11.6331 10.1739 11.6117 10.1739 11.5903V11.512C10.1739 11.4764 10.1739 11.4479 10.1739 11.4123C10.1739 11.3339 10.1739 11.2484 10.1739 11.1701C10.1739 10.529 10.2381 9.88083 10.3664 9.25401C10.4948 8.64143 10.6801 8.0431 10.9225 7.47326C10.9724 7.35929 11.0224 7.24532 11.0865 7.11711L11.1079 7.07437L11.1507 7.04588C12.0847 6.44042 13.0258 5.92044 13.9455 5.50019L14.801 5.11554L14.1451 5.78511C13.8172 6.11989 13.5248 6.48316 13.2682 6.85356C12.9901 7.26669 12.7477 7.70832 12.5552 8.16419C12.3556 8.62718 12.2059 9.11867 12.1061 9.61016C11.9991 10.1159 11.9492 10.643 11.9492 11.1701C11.9492 11.2342 11.9492 11.3054 11.9492 11.3695C11.9492 11.3909 11.9492 11.4052 11.9492 11.4265V11.4978C11.9492 11.5191 11.9492 11.5476 11.9492 11.569L11.9563 11.6545C11.9563 11.6901 11.9635 11.7328 11.9635 11.7684V11.7755C12.2558 15.5294 15.3072 18.578 19.0717 18.8701H19.0788C19.1144 18.8701 19.1572 18.8772 19.1929 18.8772L19.2713 18.8843C19.2998 18.8843 19.3283 18.8843 19.3569 18.8843H19.4139C19.4353 18.8843 19.4495 18.8843 19.4709 18.8843C19.5351 18.8843 19.5993 18.8843 19.6706 18.8843C21.5171 18.8843 23.4492 18.4569 25.4027 17.6093C26.9926 16.9255 28.6039 15.9639 30.1867 14.7601C31.6055 13.6774 32.7391 12.6018 33.4449 11.8824C33.6873 11.6402 33.9155 11.398 34.1294 11.1558C33.9155 10.9208 33.6873 10.6786 33.4449 10.4293C32.7462 9.717 31.6126 8.63431 30.1867 7.55161C29.7447 7.21683 29.2884 6.88917 28.8321 6.59001L28.7964 6.56151L28.775 6.51878C28.5826 6.14838 28.3687 5.78511 28.1405 5.43608C27.7769 4.89473 27.3563 4.389 26.8928 3.926C26.8215 3.85477 26.7431 3.78354 26.6504 3.69094L25.8091 2.90029L26.8501 3.3989C28.3259 4.10408 29.816 5.02295 31.2633 6.12701C32.7676 7.27381 33.9654 8.41349 34.714 9.17565C35.5268 10.0019 35.9759 10.5575 35.9973 10.586L36.4536 11.1487L35.9973 11.7114C35.9759 11.7328 35.5268 12.2884 34.714 13.1218C33.9725 13.8768 32.7676 15.0236 31.2633 16.1704C29.5593 17.4668 27.8268 18.4997 26.1086 19.2405C23.9269 20.1807 21.7595 20.6579 19.6706 20.6579C19.5921 20.6579 19.5066 20.6579 19.4281 20.6579C19.3925 20.6579 19.364 20.6579 19.3283 20.6508H19.2499C19.2285 20.6508 19.2071 20.6508 19.1857 20.6508C19.1572 20.6508 19.1216 20.6437 19.0931 20.6437L19.0218 20.6366C19.0004 20.6366 18.9719 20.6366 18.9505 20.6294C18.9362 20.6294 18.9148 20.6294 18.9006 20.6223L18.8435 20.6152C18.8007 20.6081 18.758 20.6081 18.7081 20.6009C18.3944 20.5653 18.0735 20.5226 17.767 20.4585C17.1538 20.3303 16.5549 20.1451 15.9846 19.9029C15.4213 19.6678 14.8795 19.3687 14.3661 19.0268C13.8599 18.6849 13.3894 18.3002 12.9616 17.8657C12.5267 17.4526 12.1417 16.9825 11.7995 16.4767Z"
        fill="white" />
    <path
        d="M2.39555 10.3153C2.41694 10.2939 2.87324 9.7312 3.67888 8.90493C4.42036 8.14989 5.62526 7.00309 7.1296 5.85629C8.83358 4.5599 10.5661 3.52707 12.2843 2.78627C14.466 1.84604 16.6334 1.3688 18.7223 1.3688C18.8008 1.3688 18.8863 1.3688 18.9647 1.3688C19.0004 1.3688 19.0432 1.3688 19.0788 1.37592H19.143C19.1644 1.37592 19.1786 1.37592 19.2 1.37592C19.2428 1.37592 19.2856 1.38304 19.3283 1.38304L19.3925 1.39017C19.4139 1.39017 19.4282 1.39017 19.4495 1.39017C19.4709 1.39017 19.4995 1.39729 19.5208 1.39729L19.5921 1.40441C19.6278 1.40441 19.6563 1.41153 19.692 1.41153H19.7205C20.027 1.44715 20.3407 1.48989 20.6331 1.55399C21.2462 1.68221 21.8451 1.86741 22.4155 2.10959C22.9787 2.34465 23.5205 2.64381 24.0339 2.98572C24.5401 3.32762 25.0106 3.71226 25.4384 4.14677C25.8662 4.57415 26.2583 5.05139 26.6005 5.55C26.9428 6.05573 27.2422 6.6042 27.4775 7.16692C27.7199 7.74388 27.9053 8.34221 28.0336 8.94767C28.0977 9.24683 28.1405 9.55312 28.1762 9.85941L28.1833 9.89503C28.1833 9.92352 28.1904 9.95914 28.1904 9.98763L28.1976 10.0589C28.1976 10.0802 28.2047 10.1087 28.2047 10.1301C28.2047 10.1515 28.2047 10.1657 28.2118 10.1871L28.219 10.2441C28.219 10.2868 28.2261 10.3295 28.2261 10.3723C28.2261 10.3936 28.2261 10.4079 28.2261 10.4293V10.4934C28.2261 10.5361 28.2261 10.5717 28.2332 10.6145C28.2332 10.6928 28.2332 10.7783 28.2332 10.8566C28.2332 11.4977 28.169 12.1459 28.0407 12.7727C27.9124 13.3853 27.727 13.9836 27.4846 14.5535C27.4347 14.6674 27.3848 14.7814 27.3206 14.9096L27.2992 14.9524L27.2565 14.9808C26.3225 15.5863 25.3814 16.1063 24.4617 16.5265L23.6061 16.9112L24.262 16.2416C24.59 15.9068 24.8823 15.5436 25.139 15.1732C25.417 14.76 25.6594 14.3184 25.8519 13.8625C26.0516 13.3995 26.2013 12.9081 26.3011 12.4166C26.408 11.9108 26.4579 11.3837 26.4579 10.8566C26.4579 10.7925 26.4579 10.7284 26.4579 10.6572C26.4579 10.6358 26.4579 10.6216 26.4579 10.6002V10.529C26.4579 10.5076 26.4579 10.4791 26.4579 10.4577L26.4508 10.3651C26.4508 10.3295 26.4437 10.2939 26.4437 10.2512V10.2369C26.1514 6.48311 23.0928 3.43447 19.3283 3.14955C19.2856 3.14955 19.2499 3.14242 19.2071 3.14242L19.1287 3.1353C19.1002 3.1353 19.0717 3.1353 19.0432 3.1353H18.979C18.9647 3.1353 18.9433 3.1353 18.9291 3.1353C18.8649 3.1353 18.8008 3.1353 18.7295 3.1353C16.8829 3.1353 14.9508 3.56268 12.9973 4.41032C11.4074 5.09413 9.79607 6.05573 8.2133 7.25952C6.79451 8.34221 5.66091 9.41779 4.95508 10.1372C4.71267 10.3794 4.48453 10.6216 4.27064 10.8638C4.48453 11.0988 4.71267 11.341 4.95508 11.5903C5.65378 12.3026 6.78738 13.3853 8.2133 14.468C8.65534 14.8028 9.11163 15.1304 9.56793 15.4296L9.60357 15.4581L9.62496 15.5008C9.81746 15.8712 10.0313 16.2345 10.2595 16.5764C10.6231 17.1177 11.0438 17.6235 11.5072 18.0865C11.5785 18.1577 11.6569 18.2289 11.7496 18.3215L12.5909 19.1122L11.55 18.6136C10.0741 17.9084 8.58404 16.9895 7.13673 15.8855C5.63239 14.7387 4.42749 13.599 3.68601 12.8368C2.88037 12.0106 2.42407 11.455 2.40268 11.4265L1.94639 10.8638L2.39555 10.3153Z"
        fill="white" />
    <path
        d="M24.8324 10.9991C24.8324 14.1118 22.3085 16.6334 19.1929 16.6334C16.0772 16.6334 13.5534 14.1118 13.5534 10.9991C13.5534 7.88634 16.0772 5.3648 19.1929 5.3648C22.3085 5.3648 24.8324 7.88634 24.8324 10.9991Z"
        fill="#F15B2A" />
</svg>