<svg width="83" height="30" viewBox="0 0 83 30" fill="none" xmlns="http://www.w3.org/2000/svg">
<path d="M0.52 22.2929C0.667444 20.5252 0.821592 17.887 0.98244 14.3718C1.14329 10.8565 1.22371 8.21162 1.22371 6.43054C2.10837 6.45063 2.82548 6.46402 3.37505 6.46402C4.01174 6.46402 4.69534 6.45063 5.43927 6.43054L5.31863 8.94146C5.65373 8.45267 5.95532 8.05762 6.2301 7.74961C6.50488 7.44161 6.86009 7.16038 7.30242 6.89925C7.73805 6.63811 8.2541 6.43724 8.83717 6.28323C9.42695 6.13593 10.0301 6.05558 10.6534 6.05558C11.1226 6.05558 11.5716 6.10245 12.0139 6.18949C12.4495 6.27654 12.8517 6.40376 13.2069 6.56446C13.5688 6.72516 13.8704 6.91264 14.125 7.12021C14.3797 7.32778 14.5942 7.56213 14.7751 7.81657C14.9494 8.07101 15.1437 8.44598 15.3515 8.94816C15.5794 8.58659 15.7938 8.27858 15.9815 8.03753C16.1759 7.79648 16.4305 7.54204 16.7522 7.28091C17.0739 7.01977 17.4358 6.80551 17.8312 6.62472C18.2267 6.45063 18.669 6.31002 19.1649 6.20958C19.6609 6.10914 20.1702 6.06227 20.6997 6.06227C21.6045 6.06227 22.4556 6.20958 23.2599 6.5042C24.0641 6.79881 24.6874 7.26752 25.1498 7.91031C25.6056 8.54641 25.8334 9.34321 25.8334 10.2873C25.8334 10.7895 25.7999 11.5193 25.7262 12.4835C25.6525 13.4477 25.5653 15.0279 25.4648 17.2175C25.3643 19.407 25.304 21.101 25.2973 22.2929C24.5332 22.2728 23.863 22.2594 23.28 22.2594C22.5897 22.2594 21.7854 22.2728 20.8538 22.2929C20.9477 20.9537 21.0348 19.5476 21.1219 18.0812L21.3096 14.5124C21.3632 13.6084 21.39 12.8451 21.39 12.2224C21.39 11.4792 21.2694 10.9167 21.0415 10.5351C20.8069 10.1534 20.512 9.87888 20.1501 9.71818C19.7882 9.55748 19.3861 9.47713 18.9371 9.47713C18.4679 9.47713 18.0457 9.56417 17.6637 9.74496C17.2817 9.92575 16.9265 10.207 16.6048 10.6087C16.2764 11.0038 16.0217 11.4658 15.8475 11.9947C15.6732 12.5237 15.5392 13.2603 15.4587 14.2111C15.3783 15.1619 15.3113 16.414 15.2577 17.9607L15.1505 22.2996C14.2859 22.2795 13.5688 22.2661 12.9924 22.2661C12.416 22.2661 11.652 22.2795 10.6936 22.2996C10.7673 21.4961 10.8679 19.8623 11.0019 17.3849C11.136 14.9074 11.203 13.2402 11.203 12.3764C11.203 11.9211 11.1695 11.5327 11.0957 11.2113C11.022 10.8966 10.8746 10.5953 10.6534 10.3074C10.4322 10.0195 10.1642 9.81192 9.86258 9.678C9.56099 9.54409 9.21248 9.47713 8.81707 9.47713C8.08655 9.47713 7.44986 9.71818 6.9003 10.1936C6.35074 10.669 5.94862 11.3118 5.69394 12.1153C5.43926 12.9188 5.25831 14.4722 5.14438 16.7889C5.03044 19.1057 4.97683 20.9403 4.97683 22.2996C4.01844 22.2795 3.30133 22.2661 2.81208 22.2661C2.25582 22.2661 1.49849 22.2728 0.52 22.2929Z" fill="#FBFBFD"/>
<path d="M30.2567 9.9123C30.4042 9.16237 30.4913 8.6401 30.5315 8.33879C30.565 8.03748 30.6321 7.58216 30.7259 6.96615C32.14 6.63136 33.3933 6.39701 34.4723 6.26309C35.5513 6.12918 36.6035 6.06222 37.6088 6.06222C38.7549 6.06222 39.8071 6.19613 40.7588 6.45727C41.7172 6.7251 42.4678 7.14694 43.0039 7.72947C43.5468 8.312 43.8149 9.14898 43.8149 10.2404C43.8149 10.8363 43.7345 12.3429 43.5669 14.7734C43.3994 17.204 43.3055 19.7082 43.272 22.2995C42.4812 22.2794 41.7507 22.266 41.0872 22.266C40.4505 22.266 39.7066 22.2794 38.8554 22.2995C38.9894 21.0407 39.1034 19.5877 39.1838 17.9339L39.3916 14.0503C38.9961 14.3114 38.6946 14.4922 38.4868 14.5994C38.279 14.7065 38.0445 14.8002 37.7831 14.8873C37.5217 14.9743 37.066 15.1082 36.4092 15.2957C35.7524 15.4765 35.2296 15.6372 34.8342 15.7711C34.4388 15.905 34.0836 16.059 33.7619 16.2331C33.4469 16.4072 33.1721 16.5947 32.9576 16.809C32.7365 17.0232 32.5823 17.2442 32.4818 17.4785C32.3813 17.7129 32.3344 17.9673 32.3344 18.2352C32.3344 18.6704 32.4617 19.0521 32.7164 19.3668C32.9711 19.6815 33.2927 19.9024 33.6748 20.0296C34.0568 20.1569 34.5125 20.2171 35.0353 20.2171C35.3704 20.2171 35.7189 20.1903 36.0875 20.1368C36.4561 20.0832 36.952 19.956 37.5753 19.7484C37.3542 20.3443 37.0995 21.2282 36.8113 22.4C36.0741 22.5272 35.4843 22.6008 35.0487 22.6343C34.613 22.6678 34.2042 22.6812 33.8289 22.6812C32.5153 22.6812 31.443 22.5071 30.5985 22.1522C29.7541 21.7973 29.1308 21.2349 28.7354 20.4649C28.3333 19.6949 28.1322 18.9181 28.1322 18.1414C28.1322 17.6928 28.2126 17.2509 28.3668 16.8157C28.5209 16.3804 28.7555 15.9787 29.0571 15.6171C29.3587 15.2555 29.7474 14.9007 30.2299 14.5659C30.7058 14.2311 31.4028 13.903 32.3076 13.5816C33.2123 13.2669 34.412 12.9455 35.8998 12.6241C36.2952 12.5437 36.7041 12.4366 37.133 12.3228C37.5619 12.2023 37.9037 12.0884 38.1584 11.9746C38.4131 11.8608 38.6342 11.7135 38.8219 11.5327C39.0095 11.3519 39.1503 11.1577 39.2374 10.9635C39.3245 10.7694 39.3715 10.5618 39.3715 10.3542C39.3715 9.94578 39.2374 9.60429 38.976 9.32307C38.708 9.04185 38.3662 8.84767 37.9439 8.74054C37.5217 8.6334 37.0593 8.57984 36.5432 8.57984C34.6465 8.55305 32.5488 9.00837 30.2567 9.9123Z" fill="#FBFBFD"/>
<path d="M48.3052 25.5872C50.6442 26.3572 52.6749 26.7388 54.3906 26.7388C55.0474 26.7388 55.664 26.6585 56.2471 26.4978C56.8301 26.3371 57.3194 26.1027 57.7148 25.7947C58.1102 25.4867 58.4185 25.0716 58.633 24.5493C58.8541 24.027 58.9949 23.4177 59.0686 22.7281C59.1423 22.0384 59.1959 20.9938 59.2429 19.5944C58.834 20.1435 58.4721 20.572 58.1504 20.88C57.8287 21.188 57.44 21.4625 56.9843 21.7036C56.5286 21.9513 56.0058 22.1455 55.4026 22.2995C54.7994 22.4468 54.1628 22.5272 53.4993 22.5272C52.5811 22.5272 51.7165 22.3866 50.8922 22.0986C50.0678 21.8107 49.3373 21.3621 48.7006 20.7528C48.0572 20.1368 47.5747 19.3668 47.2396 18.436C46.9045 17.5053 46.7369 16.5344 46.7369 15.5301C46.7369 14.0838 47.0117 12.7178 47.5546 11.4255C48.1042 10.1333 48.9017 9.07532 49.9606 8.24505C51.0195 7.41477 52.1454 6.83893 53.3451 6.53092C54.5448 6.21622 55.8852 6.06222 57.3462 6.06222C58.1571 6.06222 59.082 6.10909 60.1074 6.20952C61.1395 6.30996 62.5 6.51084 64.1956 6.81215L63.8337 11.7536L63.5053 17.9406L63.378 23.5382C63.3445 24.1743 63.2708 24.7837 63.1434 25.3729C63.0161 25.9621 62.8217 26.4911 62.5469 26.9598C62.2789 27.4352 61.9304 27.8503 61.5148 28.2119C61.0993 28.5735 60.6302 28.8681 60.1007 29.0958C59.578 29.3167 58.9212 29.5042 58.1504 29.6515C57.373 29.7988 56.542 29.8725 55.664 29.8725C54.719 29.8725 53.64 29.8122 52.4336 29.685C51.2273 29.5578 49.907 29.3234 48.4862 28.9819L48.3052 25.5872ZM59.7053 9.55073C58.8005 9.36324 57.9628 9.2695 57.1921 9.2695C55.8382 9.2695 54.719 9.51725 53.8344 10.0127C52.9497 10.5082 52.2661 11.2314 51.7902 12.1755C51.3144 13.1263 51.0731 14.1307 51.0731 15.1886C51.0731 15.972 51.2206 16.6951 51.5088 17.3647C51.7969 18.0343 52.2527 18.5432 52.876 18.8847C53.4925 19.2261 54.1829 19.4002 54.9268 19.4002C55.4562 19.4002 55.9522 19.3199 56.4146 19.1525C56.8771 18.9851 57.2993 18.7307 57.6746 18.3892C58.0499 18.0477 58.3783 17.6192 58.6665 17.1103C58.9547 16.6014 59.1557 16.0256 59.2764 15.3828C59.397 14.74 59.4841 13.9432 59.5512 12.979C59.6115 12.0215 59.6584 10.8765 59.7053 9.55073Z" fill="#FBFBFD"/>
<path d="M67.3322 22.2929C67.493 20.7328 67.6002 19.4271 67.6673 18.3759C67.7745 16.7153 67.8683 14.7936 67.942 12.6175C68.0225 10.4413 68.0761 8.37904 68.1096 6.42387C69.1216 6.44395 69.8856 6.45735 70.3883 6.45735C70.8507 6.45735 71.608 6.44395 72.6536 6.42387C72.5128 8.23173 72.3989 9.95925 72.3117 11.5997C72.2246 13.2402 72.1643 15.1217 72.1241 17.2443C72.0839 19.3668 72.0638 21.0475 72.0638 22.2795C71.1188 22.2594 70.3548 22.246 69.7851 22.246C69.2489 22.2661 68.4313 22.2728 67.3322 22.2929ZM68.19 3.71876C68.2302 2.64744 68.2503 1.82383 68.2503 1.25469V0.752501C69.1953 0.772588 69.966 0.78598 70.5625 0.78598C71.3735 0.78598 72.1308 0.772588 72.8278 0.752501C72.7943 1.01364 72.7742 1.30826 72.7675 1.64305L72.6871 3.71876C71.8962 3.69868 71.1657 3.68529 70.5022 3.68529C69.832 3.69198 69.068 3.69868 68.19 3.71876Z" fill="#FBFBFD"/>
<path d="M77.604 18.4637H76.5187V21.611H75.624V18.4637H74.5387V17.7543H77.604V18.4637Z" fill="#FBFBFD"/>
<path d="M82.2498 17.7543V21.611H81.4609V19.3928C81.4609 19.3416 81.4618 19.286 81.4636 19.226C81.4671 19.166 81.4724 19.1052 81.4795 19.0434L80.4551 21.026C80.4233 21.0878 80.3801 21.1345 80.3254 21.1663C80.2724 21.1981 80.2116 21.2139 80.1427 21.2139H80.021C79.9521 21.2139 79.8904 21.1981 79.8357 21.1663C79.7827 21.1345 79.7404 21.0878 79.7086 21.026L78.6842 19.0381C78.6895 19.1016 78.6939 19.1643 78.6975 19.226C78.701 19.286 78.7027 19.3416 78.7027 19.3928V21.611H77.9139V17.7543H78.5969C78.6357 17.7543 78.6692 17.7552 78.6975 17.7569C78.7275 17.7587 78.7539 17.764 78.7769 17.7728C78.7998 17.7816 78.8201 17.7958 78.8377 17.8152C78.8572 17.8328 78.8757 17.8584 78.8933 17.8919L79.886 19.8481C79.9213 19.9151 79.9548 19.9848 79.9866 20.0572C80.0201 20.1296 80.0518 20.2037 80.0818 20.2796C80.1118 20.2019 80.1427 20.126 80.1745 20.0519C80.208 19.9778 80.2433 19.9072 80.2804 19.8401L81.2704 17.8919C81.288 17.8584 81.3057 17.8328 81.3233 17.8152C81.3427 17.7958 81.3639 17.7816 81.3868 17.7728C81.4098 17.764 81.4354 17.7587 81.4636 17.7569C81.4936 17.7552 81.528 17.7543 81.5668 17.7543H82.2498Z" fill="#FBFBFD"/>
</svg>
