<svg width="1127" height="235" viewBox="0 0 1127 235" fill="none" xmlns="http://www.w3.org/2000/svg">
<path fill-rule="evenodd" clip-rule="evenodd" d="M666.97 125.283L709.839 64.8894H676.568C674.539 64.8894 672.649 65.9156 671.555 67.6292L648.708 103.037L625.86 67.6292C624.766 65.9256 622.876 64.8994 620.847 64.8994H557.288C554.563 64.8994 552.176 66.7525 551.51 69.3926C550.266 74.2843 548.904 79.2955 547.083 84.7651C545.87 90.2346 544.189 95.7041 542.398 101.532C541.851 103.326 541.294 105.149 540.727 107.012C539.534 110.588 538.539 114.165 537.554 117.742C536.56 121.318 535.565 124.895 534.381 128.472C533.556 130.952 532.83 133.333 532.124 135.625C530.801 139.939 529.587 143.914 528.026 147.55C525.648 141.991 523.261 135.625 520.884 128.482L513.742 107.022C512.549 103.445 511.365 99.6693 510.171 95.8934C508.978 92.1175 507.794 88.3417 506.601 84.7651C505.516 81.5073 503.537 74.1647 502.234 69.3129C501.538 66.7026 499.171 64.8894 496.475 64.8894H432.767V28.3661L402.092 33.1382C399.187 33.5866 397.039 36.0972 397.039 39.0461V64.9193H376.4V94.3193H397.039V190.48H432.767V94.3193H468.227C470.773 94.3193 473.031 95.9433 473.866 98.3443C474.702 100.745 475.518 103.146 476.323 105.497C479.516 114.843 482.53 123.669 485.961 131.67C493.481 150.489 501.011 167.177 509.207 182.4C510.112 184.083 510.162 186.086 509.356 187.819C507.158 192.552 504.502 195.889 501.836 199.217C498.663 202.395 493.899 204.776 487.543 204.776C484.37 204.776 481.187 204.776 478.81 203.979C477.218 203.451 474.931 202.923 472.633 202.385C471.489 202.116 470.335 201.857 469.281 201.588L462.925 230.191C466.098 231.785 470.067 232.572 474.045 233.369C478.81 234.166 483.574 234.953 489.92 234.953C496.266 234.953 502.622 234.156 507.386 232.572C512.151 230.988 516.915 228.597 520.884 225.419C524.853 222.241 528.821 218.266 531.994 212.706C534.222 209.359 536.45 205.234 538.957 200.602C540.021 198.629 541.135 196.567 542.319 194.435C551.848 174.569 559.785 153.906 567.722 133.244C573.671 116.706 579.619 99.0715 585.567 80.3316C587.059 75.6193 593.315 74.6629 596.14 78.7177C596.985 79.9331 597.841 81.1586 598.686 82.384C601.859 86.9569 605.042 91.5198 608.215 95.8934C615.357 106.225 622.508 116.556 629.65 126.09C626.706 129.627 623.762 133.602 620.489 138.016C619.345 139.55 618.172 141.144 616.938 142.788C611.378 148.347 607.409 153.916 603.441 160.273C601.461 163.052 599.671 165.832 597.881 168.621C596.09 171.401 594.31 174.18 592.32 176.97C591.375 178.624 590.421 180.218 589.515 181.732C587.387 185.309 585.487 188.487 584.373 191.267H620.897C622.488 188.088 624.07 184.91 626.457 180.935C627.124 179.819 627.79 178.773 628.437 177.747C630.108 175.117 631.659 172.666 632.803 169.807C635.18 165.832 637.567 161.857 639.945 158.679C642.322 154.703 644.709 151.525 647.086 148.347C649.474 151.525 651.851 154.703 655.024 158.679C656.217 160.661 657.61 162.654 658.992 164.636C660.385 166.619 661.768 168.611 662.961 170.594C665.338 174.569 667.726 178.544 669.317 181.722C670.908 184.9 672.49 188.078 674.081 190.46H711.908C711.908 190.46 705.115 176.771 694.154 161.837C682.874 146.464 670.55 129.767 666.97 125.283Z" fill="url(#paint0_linear_2001_382)"/>
<path d="M292.301 56.999C296.26 54.608 302.606 53.0338 311.349 53.0338C319.296 53.0338 325.642 53.8308 331.192 56.202C332.684 56.6304 334.137 57.1086 335.599 57.6167C342.183 59.9579 349.435 56.6603 352.07 50.1646L358.953 33.1383C353.403 29.9701 347.057 27.5791 339.11 25.1781C331.163 22.787 321.654 21.2129 310.523 21.2129C300.855 21.9601 293.286 22.7073 285.846 24.7497C281.459 30.9266 278.883 38.289 278.883 46.1695C278.883 54.5781 281.808 62.3988 286.741 68.8148V68.0975C286.741 63.3353 288.333 59.3701 292.291 56.9791V57.0089H292.301V56.999Z" fill="url(#paint1_linear_2001_382)"/>
<path d="M326.409 153.129C325.613 155.52 324.021 157.094 322.45 158.688C320.858 159.485 317.695 160.283 314.512 161.08C311.32 161.877 306.565 162.674 301.811 162.674C291.506 162.674 282.763 161.877 274.826 159.505C267.684 157.114 261.328 154.743 256.574 152.352L246.159 182.021L251.073 184.253C252.028 184.681 253.062 185.159 254.176 185.717C256.225 186.753 258.613 187.451 261.318 188.218C262.81 188.646 264.402 189.125 266.073 189.683C270.827 191.277 275.611 192.074 281.957 192.851C287.507 193.648 293.853 194.445 301.801 194.445C312.056 194.445 321.216 193.518 329.214 191.625C333.461 185.05 335.908 177.418 335.908 169.279C335.908 160.362 332.983 152.033 327.96 145.089C327.96 145.378 327.99 145.677 327.99 145.996C327.99 148.387 327.194 150.758 326.399 153.149V153.119L326.409 153.129Z" fill="url(#paint2_linear_2001_382)"/>
<path d="M363.728 125.323C361.341 119.764 358.178 115.002 354.189 111.037C350.23 107.072 344.65 103.077 338.304 99.9184C331.958 96.7502 324.807 93.5622 316.074 90.394C314.343 89.7066 312.652 89.1686 311.001 88.6406C308.822 87.9531 306.773 87.3056 304.973 86.4089C301.014 84.8149 297.832 83.2408 295.434 81.6467C293.306 80.232 291.187 78.7974 289.616 76.8049C280.982 69.034 275.621 58.2045 275.621 46.2293C275.621 39.096 277.531 32.391 280.883 26.4832C275.143 28.7148 269.941 31.5641 265.286 35.5592C259.736 39.5243 255.747 45.0835 253.39 51.4398C250.207 56.999 249.431 64.1622 249.431 71.2855C249.431 79.2457 251.023 85.572 253.39 91.1312C255.777 96.6904 259.736 100.656 263.695 104.651C267.654 108.616 272.438 111.804 277.988 114.175C283.538 116.566 289.088 118.937 293.873 120.531C306.306 124.417 314.91 128.302 319.744 132.188C320.012 132.397 320.301 132.586 320.569 132.795C321.335 133.323 322.051 133.911 322.718 134.549C332.834 143.196 339.16 155.51 339.16 169.219C339.16 176.801 337.19 183.984 333.739 190.34C340.463 188.288 346.222 185.418 350.976 181.692C362.077 172.965 366.861 161.05 366.861 145.936C366.861 137.976 366.065 130.853 363.678 125.293L363.728 125.323Z" fill="#D0DAEE"/>
<path d="M155.436 211.69C168.805 211.69 179.636 200.96 179.636 187.73C179.636 174.499 168.805 163.769 155.436 163.769C142.068 163.769 131.236 174.499 131.236 187.73C131.236 200.96 142.068 211.69 155.436 211.69Z" fill="url(#paint3_linear_2001_382)"/>
<path d="M127.009 0.00220161C92.5341 0.291121 64.5543 28.5155 64.8726 62.6478C64.9721 73.0987 67.6776 82.922 72.3724 91.5298C77.7833 101.443 75.3663 112.631 68.7219 121.777C62.575 130.245 53.812 135.695 43.3283 134.698C41.6473 134.539 39.9365 134.489 38.2058 134.539C17.5268 135.196 0.687258 151.844 0.0208359 172.317C-0.725159 195.351 18.6608 214.101 42.075 212.617C62.0379 211.351 78.022 195.192 78.9172 175.406C79.2355 168.273 77.6242 161.538 74.5507 155.67C70.1742 147.301 72.3724 138.235 77.9325 130.584L78.3602 129.996C84.9747 120.89 95.2396 116.447 105.872 120.322C112.795 122.853 120.285 124.198 128.113 124.128C162.14 123.829 189.941 96.2919 190.23 62.598C190.518 27.8978 162.051 -0.286717 127.009 0.00220161Z" fill="url(#paint4_linear_2001_382)"/>
<path d="M128.083 27.3798C108.568 27.3798 92.6931 43.2802 92.6931 62.8271C92.6931 82.374 108.568 98.2745 128.083 98.2745C147.598 98.2745 163.473 82.374 163.473 62.8271C163.473 43.2802 147.598 27.3798 128.083 27.3798Z" fill="#F15B2A"/>
<path d="M128.083 107.141C103.694 107.141 83.8406 87.2657 83.8406 62.8271C83.8406 38.3886 103.684 18.5129 128.083 18.5129C152.482 18.5129 172.325 38.3886 172.325 62.8271C172.325 87.2657 152.482 107.141 128.083 107.141ZM128.083 27.3798C108.568 27.3798 92.693 43.2802 92.693 62.8271C92.693 82.374 108.568 98.2745 128.083 98.2745C147.598 98.2745 163.473 82.374 163.473 62.8271C163.473 43.2802 147.598 27.3798 128.083 27.3798Z" fill="#505E78"/>
<path d="M930.594 22.3785C955.262 22.3785 974.2 26.7621 987.409 35.5293C1000.62 44.1371 1007.22 58.324 1007.22 78.0901C1007.22 97.8561 1000.54 112.442 987.171 121.368C973.803 130.135 954.705 134.519 929.878 134.519H925.124C921.284 134.519 918.181 137.637 918.181 141.473V189.991H880.941V26.6824C889.058 25.0884 897.651 23.9726 906.723 23.335C915.794 22.6973 923.751 22.3785 930.594 22.3785ZM932.982 54.1795C930.276 54.1795 927.571 54.2593 924.865 54.4187C922.319 54.5781 920.091 54.7374 918.181 54.8969V95.2359C918.181 99.3705 921.523 102.718 925.651 102.718H929.878C942.769 102.718 952.477 100.964 959.002 97.4576C965.527 93.9507 968.789 87.4152 968.789 77.851C968.789 73.2283 967.914 69.4026 966.164 66.3739C964.572 63.3453 962.185 60.9542 959.002 59.2008C955.978 57.2879 952.238 56.0127 947.782 55.3751C943.326 54.5781 938.393 54.1795 932.982 54.1795Z" fill="url(#paint5_linear_2001_382)"/>
<path d="M979.69 24.2913C984.336 26.0646 988.543 28.1867 992.273 30.6575C1001.29 36.5355 1007.22 45.0137 1010.09 56.0923H1039.87V189.991H1077.11V56.0923H1117.72C1122.84 56.0923 1127 51.9278 1127 46.797V24.2913H979.681H979.69Z" fill="url(#paint6_linear_2001_382)"/>
<path d="M809.922 52.9839C792.575 52.9839 780.003 57.8457 772.205 67.5693C764.566 77.1335 760.746 90.2843 760.746 107.022C760.746 115.151 761.701 122.564 763.611 129.259C765.52 135.794 768.385 141.453 772.205 146.235C776.024 151.017 780.798 154.763 786.528 157.473C792.257 160.023 798.941 161.299 806.58 161.299C818.566 161.299 824.961 161.199 824.961 150.838V112.581C824.961 109.582 827.388 107.141 830.392 107.141L862.201 102.479V184.492C857.745 186.245 850.584 188.078 840.717 189.991C830.85 192.064 818.675 193.1 804.193 193.1C791.78 193.1 780.48 191.187 770.295 187.361C760.269 183.535 751.675 177.956 744.513 170.624C737.352 163.291 731.782 154.285 727.803 143.605C723.983 132.925 722.074 120.73 722.074 107.022C722.074 93.313 724.222 80.8795 728.519 70.1995C732.816 59.5195 738.705 50.5132 746.184 43.1806C753.664 35.6886 762.417 30.0298 772.443 26.2041C782.629 22.3784 793.451 20.4656 804.909 20.4656C812.707 20.4656 819.71 21.0235 825.916 22.1393C832.282 23.0957 837.693 24.2913 842.149 25.7259C846.764 27.0011 850.504 28.3561 853.369 29.7907C856.393 31.2253 858.541 32.3411 859.814 33.1382L849.072 63.0263C843.979 60.3165 838.091 58.0051 831.407 56.0923C824.882 54.02 817.72 52.9839 809.922 52.9839Z" fill="url(#paint7_linear_2001_382)"/>
<defs>
<linearGradient id="paint0_linear_2001_382" x1="544.159" y1="234.953" x2="544.159" y2="28.3661" gradientUnits="userSpaceOnUse">
<stop offset="0.49" stop-color="#CFDAEE"/>
<stop offset="1" stop-color="#B0C2E4"/>
</linearGradient>
<linearGradient id="paint1_linear_2001_382" x1="278.883" y1="45.0138" x2="358.953" y2="45.0138" gradientUnits="userSpaceOnUse">
<stop stop-color="#6B8195"/>
<stop offset="1" stop-color="#D0DAEE"/>
</linearGradient>
<linearGradient id="paint2_linear_2001_382" x1="335.172" y1="169.767" x2="246.13" y2="169.767" gradientUnits="userSpaceOnUse">
<stop stop-color="#6B8195"/>
<stop offset="1" stop-color="#D0DAEE"/>
</linearGradient>
<linearGradient id="paint3_linear_2001_382" x1="155.436" y1="163.769" x2="155.436" y2="211.69" gradientUnits="userSpaceOnUse">
<stop offset="0.49" stop-color="#CFDAEE"/>
<stop offset="1" stop-color="#B0C2E4"/>
</linearGradient>
<linearGradient id="paint4_linear_2001_382" x1="95.1202" y1="0.00220161" x2="95.1202" y2="212.706" gradientUnits="userSpaceOnUse">
<stop offset="0.49" stop-color="#CFDAEE"/>
<stop offset="1" stop-color="#B0C2E4"/>
</linearGradient>
<linearGradient id="paint5_linear_2001_382" x1="944.082" y1="238.839" x2="944.082" y2="-36.1425" gradientUnits="userSpaceOnUse">
<stop offset="0.49" stop-color="#CFDAEE"/>
<stop offset="1" stop-color="#B0C2E4"/>
</linearGradient>
<linearGradient id="paint6_linear_2001_382" x1="969.386" y1="57.2778" x2="1032.24" y2="84.6704" gradientUnits="userSpaceOnUse">
<stop stop-color="#6B8195"/>
<stop offset="1" stop-color="#D0DAEE"/>
</linearGradient>
<linearGradient id="paint7_linear_2001_382" x1="792.138" y1="238.838" x2="792.138" y2="-36.1426" gradientUnits="userSpaceOnUse">
<stop offset="0.49" stop-color="#CFDAEE"/>
<stop offset="1" stop-color="#B0C2E4"/>
</linearGradient>
</defs>
</svg>
