<svg width="20" height="20" viewBox="0 0 20 20" fill="none" xmlns="http://www.w3.org/2000/svg">
<path fill-rule="evenodd" clip-rule="evenodd" d="M17.2917 19.439H2.70836C1.55781 19.439 0.625 18.5062 0.625 17.3556V2.77232C0.625 1.62178 1.55781 0.688965 2.70834 0.688965H17.2916C18.4422 0.688965 19.375 1.62178 19.375 2.7723V17.3556C19.375 18.5062 18.4422 19.439 17.2917 19.439ZM11.0287 9.129L15.3438 15.2905H11.9908L9.19998 11.3054L5.76477 15.2905H4.70312L8.72906 10.633L4.70312 4.88428H8.05605L10.5576 8.45636L13.7109 4.8374H14.7578L11.0287 9.129ZM12.3903 14.4081H13.7253L7.65655 5.7667H6.32156L12.3903 14.4081Z" fill="white"/>
</svg>
